<?xml version="1.0" encoding="utf-8" ?>    <!-- Generator: Assembly 2.2 - http://assemblyapp.co -->
<svg version="1.1" xmlns="http://www.w3.org/2000/svg"
     width="2048.00" height="2048.00" viewBox="0 0 2048.0 2048.0">
    <g id="document" transform="matrix(1,0,0,1,1024.0,1024.0)">
        <path d="M-290.932,-352.117 C-290.938,-351.777 -290.941,-351.435 -290.941,-351.094 C-290.941,-319.568 -265.72,-294.347 -234.194,-294.347 L-160.333,-294.347 C-128.807,-294.347 -103.586,-269.126 -103.586,-237.6 C-103.586,-206.074 -128.807,-180.853 -160.333,-180.853 L-235.996,-180.853 C-267.522,-180.853 -292.743,-154.731 -292.743,-124.106 C-292.743,-92.5794 -267.522,-67.3585 -235.996,-67.3585 L-162.135,-67.3585 C-130.608,-67.3585 -105.387,-42.1376 -105.387,-10.6114 C-105.387,20.9148 -130.608,46.1357 -162.135,46.1357 L-235.996,46.1357 C-267.522,46.1357 -292.743,72.2574 -292.743,102.883 C-292.743,134.409 -267.522,159.63 -235.996,159.63 L-162.135,159.63 C-130.608,159.63 -105.387,184.851 -105.387,216.377 C-105.387,247.903 -130.608,273.124 -162.135,273.124 L-235.996,273.124 C-267.522,273.124 -292.743,299.246 -292.743,329.871 C-292.743,330.213 -292.74,330.554 -292.734,330.894 L-461.958,330.894 C-487.92,330.894 -509.889,352.862 -509.888,378.825 C-509.888,404.787 -487.92,426.755 -461.958,426.755 L75.2643,426.755 C302.935,426.755 488.666,230.04 488.666,-11.61 C488.666,-252.262 302.935,-447.978 74.2657,-447.978 L-461.958,-447.978 C-487.92,-447.978 -509.889,-426.01 -509.889,-400.048 C-509.889,-374.085 -487.92,-352.117 -461.958,-352.117 L-290.932,-352.117 L-290.932,-352.117 Z "
              fill="#070200" fill-opacity="1.00"/>
    </g>
</svg>